<?xml version="1.0" encoding="iso-8859-1"?>
<!-- Generator: Adobe Illustrator 19.0.0, SVG Export Plug-In . SVG Version: 6.00 Build 0)  -->
<svg version="1.1" id="Capa_1" xmlns="http://www.w3.org/2000/svg" xmlns:xlink="http://www.w3.org/1999/xlink" x="0px" y="0px"
	 viewBox="0 0 512 512" style="enable-background:new 0 0 512 512;" xml:space="preserve">
<circle style="fill:#FFDC00;" cx="256" cy="256" r="256"/>
<path style="fill:#FFC000;" d="M512,256c0-12.972-0.974-25.715-2.835-38.169L376.333,85L135.667,330.333l46.771,46.771
	l-89.104,15.229l115.27,115.27C223.965,510.479,239.804,512,256,512C397.385,512,512,397.385,512,256z"/>
<rect x="135.67" y="85" style="fill:#4D4D4D;" width="240.67" height="245.33"/>
<rect x="93.33" y="349.67" style="fill:#FF9451;" width="325.33" height="42.667"/>
<rect x="255.67" y="349.67" style="fill:#F7674F;" width="163" height="42.667"/>
<rect x="223" y="279.67" style="fill:#FF6838;" width="66" height="120"/>
<rect x="255.67" y="279.67" style="fill:#AE4E32;" width="33.33" height="120"/>
<rect x="135.67" y="269" style="fill:#4D4D4D;" width="240.67" height="61.33"/>
<g>
	<rect x="255.67" y="269" style="fill:#333333;" width="120.67" height="61.33"/>
	<rect x="135.67" y="85" style="fill:#333333;" width="240.67" height="61.33"/>
</g>
<rect x="255.67" y="85" style="fill:#1A1A1A;" width="120.67" height="61.33"/>
<g>
	<rect x="255.67" y="146.33" style="fill:#333333;" width="120.67" height="61.33"/>
	<rect x="135.67" y="207.67" style="fill:#333333;" width="240.67" height="61.33"/>
</g>
<rect x="255.67" y="207.67" style="fill:#1A1A1A;" width="120.67" height="61.33"/>
<g>
	<circle style="fill:#8CC63F;" cx="344.33" cy="115.67" r="12.667"/>
	<circle style="fill:#8CC63F;" cx="344.33" cy="177" r="12.667"/>
	<circle style="fill:#8CC63F;" cx="344.33" cy="238.33" r="12.667"/>
	<circle style="fill:#8CC63F;" cx="344.33" cy="299.67" r="12.667"/>
</g>
<g>
</g>
<g>
</g>
<g>
</g>
<g>
</g>
<g>
</g>
<g>
</g>
<g>
</g>
<g>
</g>
<g>
</g>
<g>
</g>
<g>
</g>
<g>
</g>
<g>
</g>
<g>
</g>
<g>
</g>
</svg>
